<!DOCTYPE svg PUBLIC "-//W3C//DTD SVG 1.1//EN" "http://www.w3.org/Graphics/SVG/1.1/DTD/svg11.dtd">
<!-- Uploaded to: SVG Repo, www.svgrepo.com, Transformed by: SVG Repo Mixer Tools -->
<svg fill="#000000" width="64px" height="64px" viewBox="0 0 200 200" data-name="Layer 1" id="Layer_1" xmlns="http://www.w3.org/2000/svg">
<g id="SVGRepo_bgCarrier" stroke-width="0"/>
<g id="SVGRepo_tracerCarrier" stroke-linecap="round" stroke-linejoin="round"/>
<g id="SVGRepo_iconCarrier">
<title/>
<path d="M100,15a85,85,0,1,0,85,85A84.93,84.93,0,0,0,100,15Zm0,150a65,65,0,1,1,65-65A64.87,64.87,0,0,1,100,165Zm0-82.5a10,10,0,0,0-10,10V140a10,10,0,0,0,20,0V92.5A10,10,0,0,0,100,82.5ZM100,50A10,10,0,0,0,90,60v5a10,10,0,0,0,20,0V60A10,10,0,0,0,100,50Z"/>
</g>
</svg>